<svg width="32" height="33" viewBox="0 0 32 33" fill="none" xmlns="http://www.w3.org/2000/svg">
<rect x="0.148438" y="19.4181" width="26.4" height="18.2769" rx="2.6" transform="rotate(-45 0.148438 19.4181)" fill="#E9E9E9"/>
<rect x="2.01526" y="21.2849" width="26.4" height="5.28" transform="rotate(-45 2.01526 21.2849)" fill="#A7A8B2"/>
<rect x="1.31995" y="13.2" width="26.4" height="18.2769" rx="2.6" fill="#C9ED95"/>
<circle cx="14.52" cy="22.44" r="5.28" fill="#86A94D"/>
<path fill-rule="evenodd" clip-rule="evenodd" d="M15.7752 20.9518L15.3935 21.3853C15.1541 21.1653 14.9535 21.0424 14.6429 21.0424C14.2935 21.0424 14.08 21.2235 14.08 21.56C14.08 22.3365 15.84 22.1812 15.84 23.4882C15.84 24.1029 15.4776 24.5559 14.837 24.6724V25.3388H14.3194V24.6918C13.9247 24.6529 13.4911 24.4718 13.2 24.2L13.5364 23.6953C13.8405 23.9347 14.1447 24.0965 14.4941 24.0965C14.9147 24.0965 15.1217 23.8894 15.1217 23.54C15.1217 22.6859 13.3617 22.8088 13.3617 21.5924C13.3617 20.9906 13.737 20.5635 14.3194 20.46V19.8H14.837V20.4471C15.2511 20.4988 15.5358 20.6994 15.7752 20.9518Z" fill="#C9ED95"/>
</svg>
