<?xml version="1.0" encoding="UTF-8"?>
<svg width="1200pt" height="1200pt" version="1.1" viewBox="0 0 1200 1200" xmlns="http://www.w3.org/2000/svg">
 <g fill="#fff">
  <path d="m600 60c-297.76 0-540 242.24-540 540s242.24 540 540 540 540-242.24 540-540-242.24-540-540-540zm0 1020c-264.67 0-480-215.33-480-480s215.33-480 480-480 480 215.33 480 480-215.33 480-480 480z"/>
  <path d="m780 570h-150v-150c0-16.57-13.43-30-30-30s-30 13.43-30 30v150h-150c-16.57 0-30 13.43-30 30s13.43 30 30 30h150v150c0 16.57 13.43 30 30 30s30-13.43 30-30v-150h150c16.57 0 30-13.43 30-30s-13.43-30-30-30z"/>
 </g>
</svg>
